{
  "accessors": [
    {
      "bufferView": 2,
      "componentType": 5126,
      "count": 23701,
      "max": [
        1.0846748352050781,
        10.03543758392334,
        1.0846748352050781
      ],
      "min": [
        -1.0846748352050781,
        -0.035437550395727158,
        -1.0846748352050781
      ],
      "type": "VEC3"
    },
    {
      "bufferView": 2,
      "byteOffset": 284412,
      "componentType": 5126,
      "count": 23701,
      "max": [
        1,
        0.99897176027297974,
        1
      ],
      "min": [
        -1,
        -0.99897176027297974,
        -1
      ],
      "type": "VEC3"
    },
    {
      "bufferView": 1,
      "componentType": 5126,
      "count": 23701,
      "max": [
        3.5000004768371582,
        1.0000001192092896
      ],
      "min": [
        0,
        0
      ],
      "type": "VEC2"
    },
    {
      "bufferView": 0,
      "componentType": 5125,
      "count": 124416,
      "max": [
        23700
      ],
      "min": [
        0
      ],
      "type": "SCALAR"
    },
    {
      "bufferView": 2,
      "byteOffset": 568824,
      "componentType": 5126,
      "count": 27682,
      "max": [
        1.2500004768371582,
        197.45001220703125,
        10.000001907348633
      ],
      "min": [
        -1.2500004768371582,
        -1.3375004529953003,
        -10.000002861022949
      ],
      "type": "VEC3"
    },
    {
      "bufferView": 2,
      "byteOffset": 901008,
      "componentType": 5126,
      "count": 27682,
      "max": [
        1,
        1,
        1
      ],
      "min": [
        -1,
        -1,
        -1
      ],
      "type": "VEC3"
    },
    {
      "bufferView": 1,
      "byteOffset": 189608,
      "componentType": 5126,
      "count": 27682,
      "max": [
        0.8750002384185791,
        1.0000002384185791
      ],
      "min": [
        0.12500002980232239,
        0
      ],
      "type": "VEC2"
    },
    {
      "bufferView": 0,
      "byteOffset": 497664,
      "componentType": 5125,
      "count": 115200,
      "max": [
        27681
      ],
      "min": [
        0
      ],
      "type": "SCALAR"
    }
  ],
  "asset": {
    "extras": {
      "author": "ABSoln (https://sketchfab.com/ABSoln)",
      "license": "CC-BY-NC-4.0 (http://creativecommons.org/licenses/by-nc/4.0/)",
      "source": "https://sketchfab.com/3d-models/dna-6d7adbbe634441e7b0bbda26848e4e67",
      "title": "DNA"
    },
    "generator": "Sketchfab-9.13.0",
    "version": "2.0"
  },
  "bufferViews": [
    {
      "buffer": 0,
      "byteLength": 958464,
      "byteOffset": 0,
      "name": "floatBufferViews",
      "target": 34963
    },
    {
      "buffer": 0,
      "byteLength": 411064,
      "byteOffset": 958464,
      "byteStride": 8,
      "name": "floatBufferViews",
      "target": 34962
    },
    {
      "buffer": 0,
      "byteLength": 1233192,
      "byteOffset": 1369528,
      "byteStride": 12,
      "name": "floatBufferViews",
      "target": 34962
    }
  ],
  "buffers": [
    {
      "byteLength": 2602720,
      "uri": "scene.bin"
    }
  ],
  "materials": [
    {
      "doubleSided": true,
      "emissiveFactor": [
        0,
        0,
        0
      ],
      "name": "Material.001",
      "pbrMetallicRoughness": {
        "baseColorFactor": [
          0.80000000000000004,
          0.45196500000000001,
          0.14749999999999999,
          1
        ],
        "metallicFactor": 1,
        "roughnessFactor": 0
      }
    },
    {
      "doubleSided": true,
      "emissiveFactor": [
        0,
        0,
        0
      ],
      "name": "Material.002",
      "pbrMetallicRoughness": {
        "baseColorFactor": [
          0.80000000000000004,
          0.80000000000000004,
          0.80000000000000004,
          1
        ],
        "metallicFactor": 1,
        "roughnessFactor": 0
      }
    }
  ],
  "meshes": [
    {
      "primitives": [
        {
          "attributes": {
            "NORMAL": 1,
            "POSITION": 0,
            "TEXCOORD_0": 2
          },
          "indices": 3,
          "material": 0,
          "mode": 4
        }
      ]
    },
    {
      "primitives": [
        {
          "attributes": {
            "NORMAL": 5,
            "POSITION": 4,
            "TEXCOORD_0": 6
          },
          "indices": 7,
          "material": 1,
          "mode": 4
        }
      ]
    }
  ],
  "nodes": [
    {
      "children": [
        1
      ],
      "name": "RootNode (gltf orientation matrix)",
      "rotation": [
        -0.70710678118654746,
        -0,
        -0,
        0.70710678118654757
      ]
    },
    {
      "children": [
        2
      ],
      "matrix": [
        0.35113650560379028,
        0.5271947979927063,
        0.77380156517028809,
        0,
        -0.83228826522827148,
        0.55434310436248779,
        0,
        0,
        -0.42895153164863586,
        -0.64402592182159424,
        0.63342809677124023,
        0,
        -0.0033720042556524277,
        -0.0050642918795347214,
        -0.0028830328956246376,
        1
      ],
      "name": "RootNode (model correction matrix)"
    },
    {
      "children": [
        3
      ],
      "name": "root"
    },
    {
      "children": [
        4,
        6
      ],
      "matrix": [
        1,
        0,
        0,
        0,
        0,
        2.2204460492503131e-16,
        1,
        0,
        0,
        -1,
        2.2204460492503131e-16,
        0,
        0,
        0,
        0,
        1
      ],
      "name": "GLTF_SceneRootNode"
    },
    {
      "children": [
        5
      ],
      "matrix": [
        0.5,
        0,
        0,
        0,
        0,
        0.5,
        0,
        0,
        0,
        0,
        0.5,
        0,
        0,
        -2.5,
        0,
        1
      ],
      "name": "Plane_2"
    },
    {
      "mesh": 0,
      "name": ""
    },
    {
      "children": [
        7
      ],
      "matrix": [
        0.40000000596046448,
        0,
        0,
        0,
        0,
        0.025000005960464478,
        0,
        0,
        0,
        0,
        0.050000011920928955,
        0,
        0,
        -2.5,
        0,
        1
      ],
      "name": "Cube_3"
    },
    {
      "mesh": 1,
      "name": ""
    }
  ],
  "scene": 0,
  "scenes": [
    {
      "name": "OSG_Scene",
      "nodes": [
        0
      ]
    }
  ]
}

