{
  "accessors": [
    {
      "bufferView": 2,
      "componentType": 5126,
      "count": 65532,
      "max": [
        3.866241455078125,
        32.25071716308594,
        5.674437999725342
      ],
      "min": [
        -5.0387444496154785,
        8.153549194335938,
        -4.810801982879639
      ],
      "type": "VEC3"
    },
    {
      "bufferView": 2,
      "byteOffset": 786384,
      "componentType": 5126,
      "count": 65532,
      "max": [
        1.0,
        0.9999521374702454,
        1.0
      ],
      "min": [
        -1.0,
        -0.9998427033424377,
        -1.0
      ],
      "type": "VEC3"
    },
    {
      "bufferView": 1,
      "componentType": 5126,
      "count": 65532,
      "max": [
        0.9834532737731934,
        1.0
      ],
      "min": [
        -0.19999998807907104,
        0.0
      ],
      "type": "VEC2"
    },
    {
      "bufferView": 0,
      "componentType": 5125,
      "count": 242070,
      "type": "SCALAR"
    },
    {
      "bufferView": 2,
      "byteOffset": 1572768,
      "componentType": 5126,
      "count": 65532,
      "max": [
        4.166879177093506,
        32.258758544921875,
        5.681036949157715
      ],
      "min": [
        -5.048714637756348,
        -0.8691071271896362,
        -4.813960552215576
      ],
      "type": "VEC3"
    },
    {
      "bufferView": 2,
      "byteOffset": 2359152,
      "componentType": 5126,
      "count": 65532,
      "max": [
        1.0,
        0.9998424053192139,
        1.0
      ],
      "min": [
        -1.0,
        -0.999951958656311,
        -1.0
      ],
      "type": "VEC3"
    },
    {
      "bufferView": 1,
      "byteOffset": 524256,
      "componentType": 5126,
      "count": 65532,
      "max": [
        0.9834532737731934,
        1.0
      ],
      "min": [
        -0.19999998807907104,
        0.0
      ],
      "type": "VEC2"
    },
    {
      "bufferView": 0,
      "byteOffset": 968280,
      "componentType": 5125,
      "count": 258393,
      "type": "SCALAR"
    },
    {
      "bufferView": 2,
      "byteOffset": 3145536,
      "componentType": 5126,
      "count": 65533,
      "max": [
        4.169071674346924,
        32.258758544921875,
        5.691441535949707
      ],
      "min": [
        -5.038576126098633,
        -0.8696829676628113,
        -4.7771735191345215
      ],
      "type": "VEC3"
    },
    {
      "bufferView": 2,
      "byteOffset": 3931932,
      "componentType": 5126,
      "count": 65533,
      "max": [
        1.0,
        0.9998140335083008,
        1.0
      ],
      "min": [
        -1.0,
        -0.999951958656311,
        -1.0
      ],
      "type": "VEC3"
    },
    {
      "bufferView": 1,
      "byteOffset": 1048512,
      "componentType": 5126,
      "count": 65533,
      "max": [
        0.9834532737731934,
        1.0
      ],
      "min": [
        -0.19999998807907104,
        0.0
      ],
      "type": "VEC2"
    },
    {
      "bufferView": 0,
      "byteOffset": 2001852,
      "componentType": 5125,
      "count": 180231,
      "type": "SCALAR"
    },
    {
      "bufferView": 2,
      "byteOffset": 4718328,
      "componentType": 5126,
      "count": 55370,
      "max": [
        4.142798900604248,
        32.25071716308594,
        5.684553146362305
      ],
      "min": [
        -4.678709506988525,
        -0.7993564009666443,
        -4.774742126464844
      ],
      "type": "VEC3"
    },
    {
      "bufferView": 2,
      "byteOffset": 5382768,
      "componentType": 5126,
      "count": 55370,
      "max": [
        0.9998831152915955,
        0.9999521374702454,
        1.0
      ],
      "min": [
        -1.0,
        -0.9998123645782471,
        -0.9998574256896973
      ],
      "type": "VEC3"
    },
    {
      "bufferView": 1,
      "byteOffset": 1572776,
      "componentType": 5126,
      "count": 55370,
      "max": [
        0.9834532737731934,
        1.0
      ],
      "min": [
        -0.19999998807907104,
        0.0
      ],
      "type": "VEC2"
    },
    {
      "bufferView": 0,
      "byteOffset": 2722776,
      "componentType": 5125,
      "count": 63084,
      "type": "SCALAR"
    }
  ],
  "asset": {
    "extras": {
      "author": "J4747 (https://sketchfab.com/J4747)",
      "license": "CC-BY-4.0 (http://creativecommons.org/licenses/by/4.0/)",
      "source": "https://sketchfab.com/3d-models/dna-4f64e21604834e029be1497ac72a5bc0",
      "title": "DNA"
    },
    "generator": "Sketchfab-12.68.0",
    "version": "2.0"
  },
  "bufferViews": [
    {
      "buffer": 0,
      "byteLength": 2975112,
      "name": "floatBufferViews",
      "target": 34963
    },
    {
      "buffer": 0,
      "byteLength": 2015736,
      "byteOffset": 2975112,
      "byteStride": 8,
      "name": "floatBufferViews",
      "target": 34962
    },
    {
      "buffer": 0,
      "byteLength": 6047208,
      "byteOffset": 4990848,
      "byteStride": 12,
      "name": "floatBufferViews",
      "target": 34962
    }
  ],
  "buffers": [
    {
      "byteLength": 11038056,
      "uri": "scene.bin"
    }
  ],
  "materials": [
    {
      "doubleSided": true,
      "name": "Scene_-_Root",
      "pbrMetallicRoughness": {
        "baseColorFactor": [
          1.0,
          0.5684526508265624,
          0.0,
          1.0
        ],
        "roughnessFactor": 0.09862481432932664
      }
    }
  ],
  "meshes": [
    {
      "name": "DNA_Model.005__0",
      "primitives": [
        {
          "attributes": {
            "NORMAL": 1,
            "POSITION": 0,
            "TEXCOORD_0": 2
          },
          "indices": 3,
          "material": 0,
          "mode": 4
        }
      ]
    },
    {
      "name": "DNA_Model.005__0",
      "primitives": [
        {
          "attributes": {
            "NORMAL": 5,
            "POSITION": 4,
            "TEXCOORD_0": 6
          },
          "indices": 7,
          "material": 0,
          "mode": 4
        }
      ]
    },
    {
      "name": "DNA_Model.005__0",
      "primitives": [
        {
          "attributes": {
            "NORMAL": 9,
            "POSITION": 8,
            "TEXCOORD_0": 10
          },
          "indices": 11,
          "material": 0,
          "mode": 4
        }
      ]
    },
    {
      "name": "DNA_Model.005__0",
      "primitives": [
        {
          "attributes": {
            "NORMAL": 13,
            "POSITION": 12,
            "TEXCOORD_0": 14
          },
          "indices": 15,
          "material": 0,
          "mode": 4
        }
      ]
    }
  ],
  "nodes": [
    {
      "children": [
        1
      ],
      "matrix": [
        1.0,
        0.0,
        0.0,
        0.0,
        0.0,
        2.220446049250313e-16,
        -1.0,
        0.0,
        0.0,
        1.0,
        2.220446049250313e-16,
        0.0,
        0.0,
        3.870874820677268e-08,
        2.1624850887747016e-07,
        1.0
      ],
      "name": "Sketchfab_model"
    },
    {
      "children": [
        2
      ],
      "matrix": [
        0.009999999776482582,
        0.0,
        0.0,
        0.0,
        0.0,
        0.0,
        0.009999999776482582,
        0.0,
        0.0,
        -0.009999999776482582,
        0.0,
        0.0,
        0.0,
        0.0,
        0.0,
        1.0
      ],
      "name": "7cd6a85aaa8441b5ab1383dde30b3a16.fbx"
    },
    {
      "children": [
        3
      ],
      "name": "RootNode"
    },
    {
      "children": [
        4,
        5,
        6,
        7
      ],
      "matrix": [
        100.0,
        0.0,
        0.0,
        0.0,
        0.0,
        -1.629206793918314e-05,
        -99.99999999999868,
        0.0,
        0.0,
        99.99999999999868,
        -1.629206793918314e-05,
        0.0,
        0.0,
        0.0,
        0.0,
        1.0
      ],
      "name": "DNA_Model.005"
    },
    {
      "mesh": 0,
      "name": "DNA_Model.005__0"
    },
    {
      "mesh": 1,
      "name": "DNA_Model.005__0"
    },
    {
      "mesh": 2,
      "name": "DNA_Model.005__0"
    },
    {
      "mesh": 3,
      "name": "DNA_Model.005__0"
    }
  ],
  "scene": 0,
  "scenes": [
    {
      "name": "Sketchfab_Scene",
      "nodes": [
        0
      ]
    }
  ]
}
